<?xml version="1.0" encoding="UTF-8" standalone="no"?><!-- Generator: Gravit.io --><svg xmlns="http://www.w3.org/2000/svg" xmlns:xlink="http://www.w3.org/1999/xlink" style="isolation:isolate" viewBox="0 0 735 209" width="735pt" height="209pt"><defs><clipPath id="_clipPath_gIxWdfSVqHsreGia09keAyMUOMksqtjz"><rect width="735" height="209"/></clipPath></defs><g clip-path="url(#_clipPath_gIxWdfSVqHsreGia09keAyMUOMksqtjz)"><path d=" M 166.044 289.379 C 167.157 293.493 170.968 296.04 170.968 296.04 C 170.968 296.04 172.976 291.919 171.863 287.805 C 170.75 283.692 166.939 281.144 166.939 281.144 C 166.939 281.144 164.932 285.266 166.044 289.379 Z " fill="rgb(63,61,86)"/><path d=" M 167.679 288.495 C 170.733 291.468 171.106 296.037 171.106 296.037 C 171.106 296.037 166.528 295.787 163.475 292.815 C 160.421 289.842 160.048 285.273 160.048 285.273 C 160.048 285.273 164.626 285.523 167.679 288.495 Z " fill="rgb(63,61,86)"/><path d=" M 322.896 289.379 C 324.009 293.493 327.82 296.04 327.82 296.04 C 327.82 296.04 329.828 291.919 328.715 287.805 C 327.602 283.692 323.791 281.144 323.791 281.144 C 323.791 281.144 321.784 285.266 322.896 289.379 Z " fill="rgb(108,99,255)"/><path d=" M 324.531 288.495 C 327.585 291.468 327.958 296.037 327.958 296.037 C 327.958 296.037 323.38 295.787 320.327 292.815 C 317.273 289.842 316.901 285.273 316.901 285.273 C 316.901 285.273 321.478 285.523 324.531 288.495 Z " fill="rgb(108,99,255)"/><path d=" M 42.33 289.379 C 43.443 293.493 47.254 296.04 47.254 296.04 C 47.254 296.04 49.261 291.919 48.149 287.805 C 47.036 283.692 43.225 281.144 43.225 281.144 C 43.225 281.144 41.217 285.266 42.33 289.379 Z " fill="rgb(63,61,86)"/><ellipse vector-effect="non-scaling-stroke" cx="339.9983950313623" cy="74.73012247002218" rx="0.9799146011474136" ry="0.6473546550758442" fill="rgb(242,242,242)"/><ellipse vector-effect="non-scaling-stroke" cx="55.97991460114741" cy="66.63818928157399" rx="0.9799146011474136" ry="0.6473546550758442" fill="rgb(242,242,242)"/><ellipse vector-effect="non-scaling-stroke" cx="68.59402208031872" cy="61.17501490466791" rx="0.9799146011474136" ry="0.6473546550758513" fill="rgb(242,242,242)"/><rect x="111.835" y="67.286" width="0.98" height="0.324" transform="matrix(1,0,0,1,0,0)" fill="rgb(242,242,242)"/><rect x="276.826" y="65.383" width="0.98" height="0.324" transform="matrix(1,0,0,1,0,0)" fill="rgb(242,242,242)"/><rect x="118.352" y="91.605" width="1.724" height="44.992" transform="matrix(1,0,0,1,0,0)" fill="rgb(63,61,86)"/><path d=" M 135.989 83.745 C 136.099 99.477 119.344 112.282 119.344 112.282 C 119.344 112.282 102.411 99.58 102.301 83.847 C 102.191 68.115 118.946 55.31 118.946 55.31 C 118.946 55.31 135.879 68.012 135.989 83.745 Z " fill="rgb(63,61,86)"/><rect x="96.559" y="78.267" width="2.235" height="58.33" transform="matrix(1,0,0,1,0,0)" fill="rgb(63,61,86)"/><path d=" M 119.424 72.106 C 119.567 92.503 97.844 109.104 97.844 109.104 C 97.844 109.104 75.892 92.636 75.749 72.239 C 75.607 51.843 97.329 35.242 97.329 35.242 C 97.329 35.242 119.282 51.71 119.424 72.106 Z " fill="rgb(63,61,86)"/><rect x="629.363" y="84.524" width="1.724" height="44.992" transform="matrix(1,0,0,1,0,0)" fill="rgb(108,99,255)"/><path d=" M 646.999 90.258 C 647.109 105.99 630.354 118.795 630.354 118.795 C 630.354 118.795 613.421 106.093 613.311 90.36 C 613.202 74.627 629.957 61.822 629.957 61.822 C 629.957 61.822 646.89 74.525 646.999 90.258 Z " fill="rgb(63,61,86)"/><rect x="77.196" y="91.605" width="1.724" height="44.992" transform="matrix(1,0,0,1,0,0)" fill="rgb(63,61,86)"/><path d=" M 94.832 83.745 C 94.942 99.477 78.187 112.282 78.187 112.282 C 78.187 112.282 61.254 99.58 61.144 83.847 C 61.035 68.115 77.79 55.31 77.79 55.31 C 77.79 55.31 94.723 68.012 94.832 83.745 Z " fill="rgb(63,61,86)"/><rect x="378.363" y="91.605" width="1.724" height="44.992" transform="matrix(1,0,0,1,0,0)" fill="rgb(63,61,86)"/><path d=" M 395.999 83.745 C 396.109 99.477 379.354 112.282 379.354 112.282 C 379.354 112.282 362.421 99.58 362.311 83.847 C 362.202 68.115 378.957 55.31 378.957 55.31 C 378.957 55.31 395.89 68.012 395.999 83.745 Z " fill="rgb(63,61,86)"/><rect x="356.57" y="78.267" width="2.235" height="58.33" transform="matrix(1,0,0,1,0,0)" fill="rgb(63,61,86)"/><path d=" M 379.435 72.106 C 379.577 92.503 357.855 109.104 357.855 109.104 C 357.855 109.104 335.902 92.636 335.76 72.239 C 335.618 51.843 357.34 35.242 357.34 35.242 C 357.34 35.242 379.292 51.71 379.435 72.106 Z " fill="rgb(63,61,86)"/><rect x="337.206" y="91.605" width="1.724" height="44.992" transform="matrix(1,0,0,1,0,0)" fill="rgb(63,61,86)"/><path d=" M 354.843 83.745 C 354.953 99.477 338.198 112.282 338.198 112.282 C 338.198 112.282 321.265 99.58 321.155 83.847 C 321.045 68.115 337.8 55.31 337.8 55.31 C 337.8 55.31 354.733 68.012 354.843 83.745 Z " fill="rgb(63,61,86)"/><path d=" M 642.235 105.477 L 613.424 87.976 C 613.346 88.762 613.306 89.557 613.311 90.36 C 613.421 106.093 630.354 118.795 630.354 118.795 C 635.284 114.766 639.288 110.278 642.235 105.477 L 642.235 105.477 Z " fill="rgb(108,99,255)"/><path d=" M 347.125 45.328 L 394.411 92.476 C 395.467 89.618 396 86.687 395.999 83.745 C 395.946 76.073 391.892 69.123 387.752 64.013 L 385.564 64.372 L 387.622 63.854 C 385.184 60.817 382.28 57.954 378.957 55.31 C 378.957 55.31 377.75 56.232 375.988 57.884 C 369.775 44.572 357.34 35.242 357.34 35.242 C 353.458 38.382 350.038 41.76 347.125 45.328 L 347.125 45.328 Z " fill="rgb(108,99,255)"/><rect x="0" y="129.516" width="748" height="79.484" transform="matrix(1,0,0,1,0,0)" fill="rgb(3,1,45)"/></g></svg>