<?xml version="1.0" encoding="UTF-8" standalone="no"?><!-- Generator: Gravit.io --><svg xmlns="http://www.w3.org/2000/svg" xmlns:xlink="http://www.w3.org/1999/xlink" style="isolation:isolate" viewBox="0 0 560 315" width="560pt" height="315pt"><defs><clipPath id="_clipPath_x8OzHUBh15S0I20oUgw3H5OaBU4kRwUF"><rect width="560" height="315"/></clipPath></defs><g clip-path="url(#_clipPath_x8OzHUBh15S0I20oUgw3H5OaBU4kRwUF)"><g><path d=" M 569 1 C 535.038 -41.143 432.183 -18.883 293 1 C 155.913 -19.323 17.749 -35.407 -23 1 C -92.531 63.123 -16.251 230.137 -17 327 L 579 313 C 578.285 220.463 620.441 64.832 569 1 Z " fill="rgb(47,46,65)"/><circle vector-effect="non-scaling-stroke" cx="265.536992574116" cy="47.61739847231611" r="2.7614792696096515" fill="rgb(242,242,242)"/><circle vector-effect="non-scaling-stroke" cx="178.82654350837322" cy="138.74621436943428" r="1.1045917078438663" fill="rgb(242,242,242)"/><circle vector-effect="non-scaling-stroke" cx="484.7984465811216" cy="137.64162266159042" r="1.1045917078438379" fill="rgb(242,242,242)"/><circle vector-effect="non-scaling-stroke" cx="311.3775484496361" cy="127.14800143707379" r="1.1045917078438379" fill="rgb(242,242,242)"/><circle vector-effect="non-scaling-stroke" cx="347.82907480848337" cy="47.61739847231611" r="1.1045917078438379" fill="rgb(242,242,242)"/><rect x="149.555" y="93.458" width="1.105" height="0.552" transform="matrix(1,0,0,1,0,0)" fill="rgb(242,242,242)"/><rect x="440.062" y="180.721" width="1.105" height="0.552" transform="matrix(1,0,0,1,0,0)" fill="rgb(242,242,242)"/><rect x="374.339" y="96.219" width="1.105" height="0.552" transform="matrix(1,0,0,1,0,0)" fill="rgb(242,242,242)"/><path d=" M 42.33 289.379 C 43.443 293.493 47.254 296.04 47.254 296.04 C 47.254 296.04 43.225 281.144 43.225 281.144 C 43.225 281.144 41.217 285.266 42.33 289.379 Z " fill="rgb(63,61,86)"/><path d=" M 43.965 288.495 C 47.018 291.468 47.391 296.037 47.391 296.037 C 47.391 296.037 42.814 295.787 39.761 292.815 C 36.707 289.842 36.334 285.273 36.334 285.273 C 36.334 285.273 40.912 285.523 43.965 288.495 Z " fill="rgb(63,61,86)"/><path d=" M 495.227 291.735 C 495.254 291.76 495.281 291.786 495.309 291.81 C 495.288 291.78 495.266 291.752 495.247 291.721 L 495.227 291.735 Z " fill="rgb(255,101,132)"/><circle vector-effect="non-scaling-stroke" cx="184.90179790151444" cy="69.70923262919324" r="14.911988055892067" fill="rgb(242,242,242)"/></g></g></svg>